<svg width="266" height="52" viewBox="0 0 266 52" version="1.1" xmlns="http://www.w3.org/2000/svg" xmlns:xlink="http://www.w3.org/1999/xlink">
<title>access-logo</title>
<desc>Created using Figma</desc>
<g id="Canvas" transform="translate(-1493 3194)">
<g id="access-logo">
<g id="Group">
<g id="Vector">
<use xlink:href="#path0_fill" transform="translate(1493 -3192.24)" fill="#FFFFFF"/>
</g>
<g id="Vector">
<use xlink:href="#path1_fill" transform="translate(1514.81 -3192.76)" fill="#FFFFFF"/>
</g>
<g id="Vector">
<use xlink:href="#path2_fill" transform="translate(1534.34 -3194)" fill="#FFFFFF"/>
</g>
<g id="Vector">
<use xlink:href="#path3_fill" transform="translate(1552.44 -3192.44)" fill="#FFFFFF"/>
</g>
<g id="Vector">
<use xlink:href="#path4_fill" transform="translate(1566.82 -3193.09)" fill="#FFFFFF"/>
</g>
<g id="Vector">
<use xlink:href="#path5_fill" transform="translate(1583.94 -3192.76)" fill="#FFFFFF"/>
</g>
<g id="Vector">
<use xlink:href="#path6_fill" transform="translate(1611.74 -3192.24)" fill="#FFFFFF"/>
</g>
<g id="Vector">
<use xlink:href="#path7_fill" transform="translate(1633.88 -3191.91)" fill="#FFFFFF"/>
</g>
<g id="Vector">
<use xlink:href="#path8_fill" transform="translate(1646.05 -3191.91)" fill="#FFFFFF"/>
</g>
<g id="Vector">
<use xlink:href="#path9_fill" transform="translate(1666.36 -3192.24)" fill="#FFFFFF"/>
</g>
<g id="Vector">
<use xlink:href="#path10_fill" transform="translate(1688.37 -3192.89)" fill="#FFFFFF"/>
</g>
<g id="Vector">
<use xlink:href="#path11_fill" transform="translate(1707.31 -3193.48)" fill="#FFFFFF"/>
</g>
<g id="Vector">
<use xlink:href="#path12_fill" transform="translate(1720.33 -3192.57)" fill="#FFFFFF"/>
</g>
<g id="Vector">
<use xlink:href="#path13_fill" transform="translate(1741.03 -3192.76)" fill="#FFFFFF"/>
</g>
</g>
</g>
</g>
<defs>
<path id="path0_fill" d="M 9.96128 3.40586e-08C 11.9795 3.40586e-08 14.3233 0.195306 14.3883 0.586661C 14.4533 0.91217 14.5834 1.36825 14.6488 1.62903C 14.7143 1.88981 14.7789 3.06276 15.1045 5.47376L 15.9512 11.664C 16.0813 12.6417 16.7975 17.7895 17.5788 23.1331C 19.1413 33.9504 19.5319 36.492 19.9226 38.7073C 20.053 39.554 20.4433 42.0309 20.7042 44.2466C 20.9647 46.4619 21.355 48.5474 21.4854 49.0034C 21.5509 49.1337 21.5509 49.2639 21.5509 49.329C 21.5509 49.6548 21.2253 49.6548 20.0534 49.6548L 18.686 49.6548L 15.4309 49.5897L 15.2357 47.5694C 15.1707 46.4615 14.5195 43.1383 14.1939 40.0756L 13.6078 34.5367L 10.8083 34.4061L 9.70073 34.4061C 8.52884 34.4061 7.87766 34.5367 7.87766 34.8622L 7.87766 34.9273C 7.87766 35.3187 7.68216 37.0779 7.42162 38.9674C 7.16144 40.9223 6.77081 43.8548 6.57531 45.549L 5.92414 49.7192L 2.8645 49.7192L 0 49.7192L 0.19513 48.3509C 0.390631 47.0478 2.8645 28.0849 3.51568 23.1324C 4.88307 11.9895 6.83623 1.042 7.16182 0.390239C 7.2919 0.130576 8.52884 3.40586e-08 9.96128 3.40586e-08ZM 9.83082 20.657C 9.44019 23.9154 8.98451 26.9782 8.85405 27.3688C 8.78938 27.5645 8.72397 27.6943 8.72397 27.7594C 8.72397 27.89 8.85405 28.0202 9.24469 28.0853C 9.50523 28.1504 9.83082 28.2155 10.2865 28.2155L 10.4816 28.2155C 11.5234 28.2155 12.5649 28.0853 12.6953 27.9551C 12.7604 27.89 12.7604 27.6292 12.7604 27.2382C 12.7604 26.6516 12.6953 25.8696 12.5652 25.1531C 11.7189 18.8974 11.0027 12.2503 10.8076 11.9248C 10.7422 12.0554 10.2214 17.3989 9.83082 20.657Z"/>
<path id="path1_fill" d="M 10.1564 2.55439e-08L 10.2865 2.55439e-08C 14.6485 2.55439e-08 16.667 0.781594 17.4479 2.86708C 17.7085 3.58395 17.8386 5.73454 17.8386 8.34085C 17.8386 10.4256 17.6434 12.837 17.578 15.0523L 17.4476 18.4413L 14.7135 18.4413L 12.1092 18.4413L 12.1742 13.5538L 12.1742 10.6867C 12.1742 5.79927 11.849 5.6687 9.63532 5.6687C 8.39838 5.6687 8.20288 5.86437 7.81225 7.36283C 7.35657 9.05697 6.37981 31.0826 6.37981 38.772L 6.37981 38.967C 6.37981 41.183 6.64036 43.4635 6.90053 43.9196C 7.16107 44.4407 7.74683 44.7019 8.39801 44.7019C 9.04918 44.7019 9.69999 44.5062 10.3512 43.9847C 11.1975 43.2678 11.393 42.5509 11.7186 38.1199C 11.9137 35.3176 12.1092 32.8418 12.1092 32.581C 12.1092 32.1901 13.7368 31.9944 15.1041 31.9944C 16.0805 31.9944 16.9923 32.0595 17.1223 32.3203C 17.1223 32.3854 17.1874 32.7113 17.1874 33.2324C 17.1874 34.4705 17.1223 36.8819 16.9923 39.4878C 16.6667 45.2878 16.4715 46.5259 15.6899 47.8941C 14.453 50.0447 12.6949 50.6965 8.39838 50.6965C 4.10144 50.6965 2.27837 49.849 0.846306 47.047C 0.260174 45.9392 5.21761e-07 44.5709 5.21761e-07 40.2043C 5.21761e-07 36.0992 0.260544 28.5403 0.716219 16.941C 1.23694 5.01619 1.23694 4.49463 2.27874 2.86597C 2.8645 1.95343 4.0364 0.911054 4.81803 0.585544C 5.66396 0.260407 7.81262 2.55439e-08 10.1564 2.55439e-08Z"/>
<path id="path2_fill" d="M 8.46417 0C 9.04993 0 9.7011 0.0651018 10.2869 0.130576C 12.6957 0.456085 14.9094 1.88981 15.6907 3.12786C 16.2114 3.97493 16.4719 4.43102 16.4719 7.88513C 16.4719 8.53615 16.4069 9.25339 16.4069 10.1008C 16.3415 13.6193 16.2114 16.6173 16.0162 16.8126C 15.9512 16.8774 15.4955 16.9425 15.0395 16.9425C 14.5838 16.9425 14.0631 16.8774 13.477 16.8126L 11.2633 16.4868L 11.2633 11.664C 11.2633 7.03732 11.1982 6.84202 10.2214 6.32083C 9.70073 6.06042 9.3101 5.92985 8.91947 5.92985C 8.07316 5.92985 7.0964 6.58161 6.90127 8.01497C 6.64073 9.64437 5.98955 28.9327 5.98955 38.3811L 5.98955 40.4662L 6.05459 42.8772C 6.05459 44.7015 6.18468 44.8317 7.68216 44.8317L 8.26829 44.8317L 10.1564 44.9623L 10.1564 40.9226L 10.1564 40.0105C 10.1564 36.2308 10.1564 36.2308 10.6121 35.7093L 13.0209 35.7093L 15.5602 35.7093C 15.4952 35.9697 15.5602 39.0328 15.4297 42.0952C 15.0391 50.371 13.6721 51.7396 7.29153 51.7396C 4.0364 51.7396 3.51568 51.609 2.14866 50.567C 1.23694 49.8498 0.455673 48.7423 0.260543 47.8949C 0.0654138 47.1129 2.49538e-07 41.4435 2.49538e-07 34.6018C 2.49538e-07 27.1731 0.130458 18.3107 0.325588 13.0977C 0.455674 9.5138 0.781261 5.86437 1.10685 4.9522C 1.75802 2.99766 3.25551 1.36825 5.07858 0.586661C 5.98992 0.195306 7.22723 0 8.46417 0Z"/>
<path id="path3_fill" d="M 0.456048 -1.41911e-09L 5.79442 -1.41911e-09L 13.0859 -1.41911e-09L 13.0213 2.73688L 13.0213 3.12786C 13.0213 4.04003 13.0859 4.8871 13.0859 5.40866C 13.0859 5.66944 13.086 5.86475 13.0213 5.92985C 12.9562 5.99495 12.8258 5.99495 12.6307 5.99495C 10.6775 5.99495 8.46417 6.06005 6.4456 6.25573L 6.4456 9.5138L 6.4456 14.1405L 6.4456 16.6166L 6.51064 20.7221L 10.1564 20.657L 12.6307 20.657L 12.6307 24.2409L 12.6307 27.7602L 10.4169 27.6951C 10.0267 27.6951 9.76615 27.63 9.44056 27.63C 8.65892 27.63 6.57568 27.6951 6.51064 27.7605C 6.38055 27.8904 6.31551 31.279 6.25009 35.2539L 6.18505 42.4873L 9.50523 42.4873C 10.091 42.4873 10.9377 42.4218 11.5238 42.4218C 11.9141 42.4218 12.1746 42.4873 12.2396 42.5524C 12.3047 42.6179 12.3701 42.7474 12.3701 43.0736C 12.3701 43.7254 12.2396 44.7677 12.2396 45.8101L 12.2396 46.4619L 12.4351 49.5243L 5.20866 49.5243L 5.44447e-07 49.5243L 0.0650449 37.4038C 0.130088 30.7575 0.26017 23.1331 0.325585 20.4617C 0.390629 19.1585 0.39063 17.1382 0.39063 14.9228C 0.39063 12.5769 0.325585 10.0354 0.325585 7.82003L 0.456048 -1.41911e-09Z"/>
<path id="path4_fill" d="M 9.57102 32.7124C 9.57102 32.1257 9.50597 29.9759 8.78975 29.1935C 7.16181 27.4343 4.94849 27.8253 3.19046 27.1735C 1.82344 26.6519 0.651173 25.479 0.325957 22.0904C 0.325957 21.6997 0.391001 21.3084 0.391001 20.9174C 0.391001 18.3107 0.260544 16.8123 0.260544 14.662L 0.260544 13.0981C 0.260544 12.3165 0.325588 11.5997 0.325588 10.8824L 0.325588 8.14591C 0.325588 6.38668 0.390633 5.01805 0.91135 3.8451C 1.56253 2.41137 2.669 1.369 4.49207 0.586661C 5.40342 0.195677 6.64073 -9.2242e-09 7.87766 -9.2242e-09C 9.37514 -9.2242e-09 10.9373 0.260779 12.2396 0.716864C 15.4297 1.75924 15.8204 2.2808 15.8204 7.1028L 15.8204 7.55925L 15.8204 10.035C 15.7553 13.5538 15.5598 16.5515 15.3647 16.7468C 15.2997 16.8119 14.7789 16.9425 14.1928 16.9425C 13.6067 16.9425 12.9559 16.8774 12.3697 16.8119L 10.156 16.4864L 10.156 11.6648C 10.156 7.03769 10.091 6.32157 9.17965 6.32157C 8.72397 6.25647 8.33334 6.25647 8.00775 6.25647C 7.09603 6.25647 6.57531 6.58198 6.38018 8.01571C 6.31514 8.34122 6.31514 8.66747 6.31514 9.25413L 6.31514 11.3389C 6.31514 12.7726 6.25009 13.5546 6.18468 16.617L 6.18468 17.2033C 6.18468 18.7025 6.31514 20.1354 7.68216 20.5923C 11.0678 21.7001 15.3647 22.6119 15.4297 27.3037C 15.4948 30.7575 15.4948 34.5367 15.4948 37.3394C 15.4948 42.6175 15.4948 46.3971 15.2997 47.1136C 15.1041 47.9607 14.3233 49.0686 13.4115 49.7858C 12.0441 50.8282 11.5234 50.9584 8.26829 50.9584C 1.88811 50.9584 0.781264 49.6552 0.390633 41.3795C 0.260174 38.3167 0.065041 35.4496 -2.22316e-06 35.1885L 5.85946 35.0579C 6.31514 35.5791 6.38018 35.4493 6.38018 39.2285L 6.38018 40.141L 6.38018 44.1807L 7.87766 44.0501L 9.76578 43.9196L 9.76578 39.7497C 9.76578 36.5564 9.70073 38.316 9.57064 32.9073L 9.57064 32.7124L 9.57102 32.7124Z"/>
<path id="path5_fill" d="M 8.9191 2.55439e-08L 11.0023 2.55439e-08C 11.6531 2.55439e-08 12.2393 1.10868e-08 12.76 0.0651018C 15.1688 0.195306 16.8618 0.586288 17.4476 1.95454C 17.8382 2.93219 17.9687 4.10514 17.9687 5.47339C 17.9687 6.45103 17.9687 7.49341 17.9036 8.60125L 17.7732 15.5087L 14.8436 15.5087L 11.7186 15.5087L 11.8486 11.2076C 11.8486 10.8817 11.9137 10.5558 11.9137 10.2299C 11.9137 8.1448 11.5881 7.03695 9.96054 6.77617C 9.76503 6.71107 9.50449 6.71107 9.30973 6.71107C 7.87729 6.71107 6.9009 7.88402 6.9009 10.3605C 6.9009 11.6636 6.51026 15.248 6.51026 16.6817L 6.51026 17.0723C 6.83585 20.3307 7.94271 20.3955 12.0445 24.3057C 14.1278 26.2606 16.0809 28.4759 16.4065 29.2583C 16.667 29.9747 16.7971 31.2783 16.7971 33.8195C 16.7971 35.123 16.7321 36.8175 16.6667 38.9023C 16.4061 47.96 16.146 48.7419 13.4115 50.0455C 12.3701 50.5015 10.1564 50.7619 7.9427 50.7619C 5.85946 50.7619 3.84127 50.567 2.79983 50.1106C 0.521089 49.1329 -1.72408e-06 48.416 -1.72408e-06 43.138L -1.72408e-06 40.336L 0.130456 33.3638L 2.99533 33.3638L 5.85983 33.3638L 5.59929 38.7724C 5.66433 41.4438 5.85984 43.7246 6.12038 43.8548C 6.25047 43.9203 6.6411 43.9854 7.09677 43.9854C 7.4874 43.9854 7.94308 43.9854 8.26867 43.9203C 9.44056 43.7897 10.1568 43.594 10.4173 41.5093C 10.5478 40.2712 10.6125 37.3387 10.6125 35.7097L 10.6125 32.7775L 7.09677 29.9096C 1.56289 24.306 0.391002 26.4563 0.391002 18.8974L 0.391002 18.6366C 0.391002 12.8373 0.781636 3.58432 1.23731 2.67141C 2.01857 0.977271 3.32055 0.325509 6.51064 0.0651018C 7.3562 1.10868e-08 8.13747 2.55439e-08 8.9191 2.55439e-08Z"/>
<path id="path6_fill" d="M 9.96053 3.40586e-08C 11.9791 3.40586e-08 14.3225 0.195306 14.3879 0.586661C 14.453 0.91217 14.5831 1.36825 14.6481 1.62903C 14.7131 1.88981 14.7782 3.06276 15.1038 5.47376L 15.9505 11.664C 16.0805 12.6417 16.7964 17.7895 17.578 23.1331C 19.1405 33.9504 19.5312 36.492 19.9218 38.7073C 20.0523 39.554 20.4425 42.0309 20.7034 44.2466C 20.9636 46.4619 21.3542 48.5474 21.4847 49.0034C 21.5497 49.1337 21.5497 49.2639 21.5497 49.329C 21.5497 49.6548 21.2242 49.6548 20.0526 49.6548L 18.6852 49.6548L 15.4297 49.5897L 15.2346 47.5694C 15.1696 46.4615 14.5184 43.1383 14.1928 40.0756L 13.607 34.5367L 10.8076 34.4061L 9.70073 34.4061C 8.52883 34.4061 7.87803 34.5367 7.87803 34.8622L 7.87803 34.9273C 7.87803 35.3187 7.68254 37.0779 7.42199 38.9674C 7.16145 40.9223 6.77081 43.8548 6.57568 45.549L 5.92451 49.7192L 2.86487 49.7192L 4.08335e-06 49.7192L 0.195131 48.3509C 0.390633 47.0478 2.8645 28.0849 3.5153 23.1324C 4.88307 11.9895 6.83585 1.042 7.16144 0.390239C 7.29153 0.130576 8.52846 3.40586e-08 9.96053 3.40586e-08ZM 9.83082 20.657C 9.43981 23.9154 8.98451 26.9782 8.85406 27.3688C 8.78901 27.5645 8.72359 27.6943 8.72359 27.7594C 8.72359 27.89 8.85405 28.0202 9.24431 28.0853C 9.50485 28.1504 9.83045 28.2155 10.2861 28.2155L 10.4812 28.2155C 11.5231 28.2155 12.5645 28.0853 12.6949 27.9551C 12.76 27.89 12.76 27.6292 12.76 27.2382C 12.76 26.6516 12.695 25.8696 12.5649 25.1531C 11.7186 18.8974 11.0023 12.2503 10.8072 11.9248C 10.7422 12.0554 10.2211 17.3989 9.83082 20.657Z"/>
<path id="path7_fill" d="M 4.81766 0.0647299L 7.35694 0.130204L 7.35694 1.43336C 7.35694 3.12749 7.29116 6.25536 7.16144 9.7091C 6.96631 14.7919 6.6411 24.3708 6.44522 30.9524L 6.18506 42.8776L 8.65892 42.8776L 10.4816 42.8776L 10.4816 44.6368C 10.4816 45.5493 10.3512 46.9827 10.2214 47.6996L 9.96091 49.0682L 4.62253 49.0682L -3.90187e-06 49.0682L 0.325586 38.6418C 0.520344 32.8422 0.781259 24.8923 1.04143 20.9174C 1.30198 16.9425 1.43244 10.6867 1.43244 6.97259L 1.69261 -1.98675e-08L 4.81766 0.0647299Z"/>
<path id="path8_fill" d="M 4.81765 0.0647299L 7.35694 0.130204L 7.35694 1.43336C 7.35694 3.12749 7.29115 6.25536 7.16144 9.7091C 6.96631 14.7919 6.6411 24.3708 6.44523 30.9524L 6.18505 42.8776L 8.6593 42.8776L 10.4816 42.8776L 10.4816 44.6368C 10.4816 45.5493 10.3512 46.9827 10.2214 47.6996L 9.9609 49.0682L 4.62253 49.0682L 3.99261e-06 49.0682L 0.325583 38.6418C 0.520713 32.8422 0.781638 24.8923 1.04144 20.9174C 1.30198 16.9425 1.43207 10.6867 1.43207 6.97259L 1.69261 -1.98675e-08L 4.81765 0.0647299Z"/>
<path id="path9_fill" d="M 9.96016 3.40586e-08C 11.9787 3.40586e-08 14.3221 0.195306 14.3868 0.586661C 14.4526 0.91217 14.5823 1.36825 14.6474 1.62903C 14.7128 1.88981 14.7782 3.06276 15.1034 5.47376L 15.9497 11.664C 16.0802 12.6417 16.796 17.7895 17.5773 23.1331C 19.1402 33.9504 19.5308 36.492 19.9211 38.7073C 20.0515 39.554 20.4418 42.0309 20.7027 44.2466C 20.9629 46.4619 21.3539 48.5474 21.4843 49.0034C 21.549 49.1337 21.549 49.2639 21.549 49.329C 21.549 49.6548 21.2238 49.6548 20.0519 49.6548L 18.6845 49.6548L 15.429 49.5897L 15.2342 47.5694C 15.1688 46.4615 14.5176 43.1383 14.1924 40.0756L 13.6067 34.5367L 10.8072 34.4061L 9.69999 34.4061C 8.52809 34.4061 7.87767 34.5367 7.87767 34.8622L 7.87767 34.9273C 7.87767 35.3187 7.68179 37.0779 7.42125 38.9674C 7.16108 40.9223 6.77007 43.8548 6.57532 45.549L 5.92376 49.7192L 2.86451 49.7192L 1.72408e-06 49.7192L 0.194755 48.3509C 0.389884 47.0478 2.8645 28.0849 3.51567 23.1324C 4.88233 11.9895 6.83586 1.042 7.16145 0.390239C 7.29116 0.130576 8.52773 3.40586e-08 9.96016 3.40586e-08ZM 9.83007 20.657C 9.43907 23.9154 8.98377 26.9782 8.85332 27.3688C 8.78827 27.5645 8.72323 27.6943 8.72323 27.7594C 8.72323 27.89 8.85331 28.0202 9.24394 28.0853C 9.50449 28.1504 9.82971 28.2155 10.2854 28.2155L 10.4809 28.2155C 11.5223 28.2155 12.5641 28.0853 12.6942 27.9551C 12.7592 27.89 12.7593 27.6292 12.7593 27.2382C 12.7593 26.6516 12.6942 25.8696 12.5645 25.1531C 11.7182 18.8974 11.002 12.2503 10.8068 11.9248C 10.7414 12.0554 10.2211 17.3989 9.83007 20.657Z"/>
<path id="path10_fill" d="M 1.04144 -2.76726e-08L 7.09603 -2.76726e-08L 13.8022 -2.76726e-08C 16.276 0.260407 17.0577 1.43336 17.0577 6.25536L 17.0577 7.62398C 16.9919 9.18792 16.9919 11.1428 16.9919 13.4236C 16.9919 18.637 16.8618 21.1782 16.6667 22.4813C 16.3411 24.2406 14.909 24.9574 13.0205 25.3484C 12.5649 25.4135 12.2393 25.5441 12.0441 25.6743L 13.2157 31.9951C 13.7364 34.7971 13.8018 35.6446 14.7135 40.2054C 14.9733 41.574 15.4294 44.0505 15.6899 45.7446L 16.3407 49.9153L 13.8018 50.1106L 11.0677 50.2411L 9.89587 44.1811L 6.51027 25.088L 5.92452 32.1257L 5.27334 50.3713L 2.40882 50.3713L 8.89263e-06 50.3713L 8.89263e-06 47.6348C 8.89263e-06 46.136 0.260545 34.7324 0.52109 22.286L 1.04144 -2.76726e-08ZM 8.65893 6.71181L 8.39876 6.71181L 6.6411 6.90712L 6.6411 14.0099C 6.6411 14.7923 6.57568 15.5091 6.57568 16.1605C 6.57568 18.5715 6.6411 19.9398 6.6411 20.5261L 6.6411 20.9174L 6.6411 20.9825C 6.6411 21.1778 6.83623 21.2429 7.16182 21.2429C 7.74758 21.2429 8.72435 20.9825 9.44094 20.7217C 10.808 20.2656 10.938 20.07 11.1332 18.1802C 11.2636 17.0072 11.4591 14.9872 11.4591 12.5111L 11.4591 11.5985C 11.4591 8.86203 11.2636 7.88439 10.808 7.49304C 10.482 7.233 9.57065 6.71181 8.65893 6.71181Z"/>
<path id="path11_fill" d="M 6.64074 11.859C 6.64074 14.2048 6.57532 17.2676 6.51027 18.3755L 6.44523 20.2653L 11.5234 20.2653L 11.5234 23.2629L 11.5234 26.7167L 8.78939 26.5861L 6.05459 26.5861L 5.98955 34.7964L 5.98955 43.2027L 8.33371 43.2027L 12.1096 43.3333L 11.9791 46.9827L 11.849 50.5666L 5.14324 50.4361L 6.71484e-06 50.5015L 0.130084 45.4191C 0.195127 42.6168 0.260555 34.341 0.389899 26.9124C 0.520357 19.4833 0.650797 12.7068 0.715841 11.7291C 0.780884 9.5789 0.911347 3.12786 0.976018 -1.06433e-09L 6.37981 0.130576L 11.9787 0.195678L 11.9133 3.90946L 11.9787 7.55888L 9.37476 7.55888L 6.70503 7.55888L 6.64074 11.859Z"/>
<path id="path12_fill" d="M 10.0921 -2.76726e-08L 10.288 -2.76726e-08L 14.3894 -2.76726e-08L 14.9752 4.43139C 15.4312 8.21102 16.6027 16.9428 19.4022 42.8125C 19.6627 45.0281 19.9229 47.4395 20.0534 48.3517L 20.2485 49.9807L 16.993 50.1113C 15.1703 50.1764 14.259 50.3066 14.259 50.3066C 14.259 50.3066 13.9984 47.505 13.6078 44.116C 13.2172 40.7277 12.8916 36.0355 12.6961 35.8402C 12.5656 35.7097 12.1757 35.7097 11.5892 35.7097C 11.0689 35.7097 10.4177 35.7748 9.76652 35.7748L 7.48778 35.7748L 6.70614 42.2913C 6.38092 44.7674 6.18542 47.4395 6.12038 48.2862L 5.98992 49.8505L 2.99533 49.9807L 7.07781e-06 50.1113L 0.260547 48.6776C 0.325591 48.3517 4.49244 10.4267 5.4692 0.456457C 5.47032 0.130576 7.09788 -2.76726e-08 10.0921 -2.76726e-08ZM 10.1579 8.08044L 9.24616 15.6393L 8.07429 28.0202L 8.07429 29.5845L 12.5017 29.3237L 11.4599 20.7221L 10.1579 8.08044Z"/>
<path id="path13_fill" d="M 8.91984 2.55439e-08L 11.0035 2.55439e-08C 11.6539 2.55439e-08 12.24 1.10868e-08 12.7611 0.0651018C 15.1696 0.195306 16.8625 0.586288 17.4483 1.95454C 17.8389 2.93219 17.969 4.10514 17.969 5.47339C 17.969 6.45103 17.969 7.49341 17.9036 8.60125L 17.7732 15.5087L 14.8436 15.5087L 11.7186 15.5087L 11.849 11.2076C 11.849 10.8817 11.9141 10.5558 11.9141 10.2299C 11.9141 8.1448 11.5889 7.03695 9.96091 6.77617C 9.76615 6.71107 9.50523 6.71107 9.30973 6.71107C 7.87766 6.71107 6.90089 7.88402 6.90089 10.3605C 6.90089 11.6636 6.51064 15.248 6.51064 16.6817L 6.51064 17.0723C 6.83623 20.3307 7.94307 20.3955 12.0445 24.3057C 14.1278 26.2606 16.0809 28.4759 16.4061 29.2583C 16.6667 29.9747 16.7971 31.2783 16.7971 33.8195C 16.7971 35.123 16.7321 36.8175 16.6667 38.9023C 16.4061 47.96 16.1463 48.7419 13.4119 50.0455C 12.3697 50.5015 10.156 50.7619 7.94272 50.7619C 5.85947 50.7619 3.84089 50.567 2.79908 50.1106C 0.520337 49.1329 -1.10704e-05 48.416 -1.10704e-05 43.138L -1.10704e-05 40.336L 0.130452 33.3638L 2.99497 33.3638L 5.85946 33.3638L 5.59892 38.7724C 5.66433 41.4438 5.85946 43.7246 6.12 43.8548C 6.25046 43.9203 6.64072 43.9854 7.0964 43.9854C 7.48703 43.9854 7.94271 43.9854 8.2683 43.9203C 9.43982 43.7897 10.156 43.594 10.4166 41.5093C 10.5467 40.2712 10.6117 37.3387 10.6117 35.7097L 10.6117 32.7775L 7.09603 29.9096C 1.56216 24.306 0.390629 26.4563 0.390629 18.8974L 0.390629 18.6366C 0.390629 12.8373 0.780517 3.58432 1.23656 2.67141C 2.0182 0.977271 3.3198 0.325509 6.50989 0.0651018C 7.35768 1.10868e-08 8.13858 2.55439e-08 8.91984 2.55439e-08Z"/>
</defs>
</svg>
